<svg xmlns="http://www.w3.org/2000/svg" viewBox="0 0 1100 720" font-family="'Segoe UI', 'Noto Sans SC', Arial, sans-serif">
  <defs>
    <linearGradient id="s1" x1="0" y1="0" x2="0" y2="1"><stop offset="0" stop-color="#6366f1"/><stop offset="1" stop-color="#4f46e5"/></linearGradient>
    <linearGradient id="s2" x1="0" y1="0" x2="0" y2="1"><stop offset="0" stop-color="#3b82f6"/><stop offset="1" stop-color="#2563eb"/></linearGradient>
    <linearGradient id="topo" x1="0" y1="0" x2="0" y2="1"><stop offset="0" stop-color="#10b981"/><stop offset="1" stop-color="#059669"/></linearGradient>
    <linearGradient id="val" x1="0" y1="0" x2="0" y2="1"><stop offset="0" stop-color="#f59e0b"/><stop offset="1" stop-color="#d97706"/></linearGradient>
    <linearGradient id="attr" x1="0" y1="0" x2="0" y2="1"><stop offset="0" stop-color="#ef4444"/><stop offset="1" stop-color="#dc2626"/></linearGradient>
    <linearGradient id="cmp" x1="0" y1="0" x2="0" y2="1"><stop offset="0" stop-color="#f1f5f9"/><stop offset="1" stop-color="#e2e8f0"/></linearGradient>
    <filter id="shadow"><feDropShadow dx="0" dy="2" stdDeviation="3" flood-opacity="0.12"/></filter>
  </defs>

  <rect width="1100" height="720" fill="#f8fafc" rx="8"/>
  <text x="550" y="32" text-anchor="middle" font-size="18" font-weight="700" fill="#1e293b">Pipeline: Component-First Execution</text>
  <text x="550" y="50" text-anchor="middle" font-size="12" fill="#94a3b8">Content-agnostic · abstract stages · per-component parallelism</text>

  <!-- ====== ENTRY ====== -->
  <rect x="40" y="75" width="140" height="36" rx="18" fill="#e2e8f0" filter="url(#shadow)"/>
  <text x="110" y="98" text-anchor="middle" font-size="12" fill="#475569" font-weight="600">Graph State</text>
  <path d="M180,93 L210,93" stroke="#94a3b8" stroke-width="1.5"/>

  <!-- ====== STAGE 1: SPLIT ====== -->
  <rect x="215" y="68" width="140" height="50" rx="10" fill="url(#s1)" filter="url(#shadow)"/>
  <text x="285" y="89" text-anchor="middle" font-size="14" fill="#fff" font-weight="700">Component</text>
  <text x="285" y="105" text-anchor="middle" font-size="12" fill="#c7d2fe">Split</text>

  <!-- Fork arrows -->
  <path d="M355,93 L380,93 L380,150 L410,150" stroke="#6366f1" stroke-width="1.5" fill="none"/>
  <path d="M355,93 L380,93 L380,210 L410,210" stroke="#6366f1" stroke-width="1.5" fill="none"/>
  <path d="M355,93 L380,93 L380,270 L410,270" stroke="#6366f1" stroke-width="1.5" fill="none"/>
  <path d="M355,93 L380,93 L380,330 L410,330" stroke="#6366f1" stroke-width="1.5" fill="none"/>
  <path d="M355,93 L380,93 L380,390 L410,390" stroke="#6366f1" stroke-width="1.5" fill="none"/>
  <path d="M355,93 L380,93 L380,450 L410,450" stroke="#6366f1" stroke-width="1.5" fill="none"/>

  <!-- ====== COMPONENT ROWS ====== -->
  <!-- Component 0 -->
  <rect x="415" y="135" width="80" height="30" rx="6" fill="#eef2ff" stroke="#a5b4fc" stroke-width="1"/>
  <text x="455" y="154" text-anchor="middle" font-size="11" font-weight="600" fill="#4338ca">Comp 0</text>
  <path d="M495,150 L515,150" stroke="#a5b4fc" stroke-width="1.5"/>

  <rect x="520" y="128" width="60" height="44" rx="6" fill="url(#s2)"/>
  <text x="550" y="148" text-anchor="middle" font-size="9" fill="#fff" font-weight="700">Plan</text>
  <text x="550" y="162" text-anchor="middle" font-size="8" fill="#bfdbfe">LLM #1</text>
  <path d="M580,150 L595,150" stroke="#3b82f6" stroke-width="1.5"/>

  <rect x="598" y="128" width="60" height="44" rx="6" fill="url(#s1)"/>
  <text x="628" y="148" text-anchor="middle" font-size="9" fill="#fff" font-weight="700">Exec</text>
  <text x="628" y="162" text-anchor="middle" font-size="8" fill="#c7d2fe">#2</text>
  <path d="M658,150 L673,150" stroke="#6366f1" stroke-width="1.5"/>

  <rect x="676" y="128" width="60" height="44" rx="6" fill="url(#s2)"/>
  <text x="706" y="148" text-anchor="middle" font-size="9" fill="#fff" font-weight="700">Story</text>
  <text x="706" y="162" text-anchor="middle" font-size="8" fill="#bfdbfe">LLM #3</text>
  <path d="M736,150 L751,150" stroke="#3b82f6" stroke-width="1.5"/>

  <rect x="754" y="123" width="60" height="54" rx="6" fill="url(#topo)"/>
  <text x="784" y="141" text-anchor="middle" font-size="9" fill="#fff" font-weight="700">TopoΔ</text>
  <text x="784" y="155" text-anchor="middle" font-size="8" fill="#d1fae5">LLM #4a</text>
  <text x="784" y="169" text-anchor="middle" font-size="7" fill="#d1fae5">retry↺</text>
  <path d="M814,150 L826,150" stroke="#10b981" stroke-width="1.5"/>

  <rect x="829" y="128" width="55" height="44" rx="6" fill="url(#val)"/>
  <text x="856" y="145" text-anchor="middle" font-size="9" fill="#fff" font-weight="700">Check</text>
  <text x="856" y="162" text-anchor="middle" font-size="7" fill="#fef3c7">✓/✗</text>
  <path d="M884,150 L899,150" stroke="#f59e0b" stroke-width="1.5"/>

  <rect x="902" y="128" width="60" height="44" rx="6" fill="url(#attr)"/>
  <text x="932" y="148" text-anchor="middle" font-size="9" fill="#fff" font-weight="700">Proj</text>
  <text x="932" y="162" text-anchor="middle" font-size="8" fill="#fecaca">LLM #5</text>

  <!-- Component 1 (no retry badge) -->
  <rect x="415" y="195" width="80" height="30" rx="6" fill="#eef2ff" stroke="#a5b4fc" stroke-width="1"/>
  <text x="455" y="214" text-anchor="middle" font-size="11" font-weight="600" fill="#4338ca">Comp 1</text>
  <path d="M495,210 L515,210" stroke="#a5b4fc" stroke-width="1.5"/>
  <rect x="520" y="195" width="60" height="30" rx="6" fill="url(#s2)"/><text x="550" y="214" text-anchor="middle" font-size="9" fill="#fff" font-weight="700">Plan</text>
  <path d="M580,210 L595,210" stroke="#3b82f6" stroke-width="1.5"/>
  <rect x="598" y="195" width="60" height="30" rx="6" fill="url(#s1)"/><text x="628" y="214" text-anchor="middle" font-size="9" fill="#fff" font-weight="700">Exec</text>
  <path d="M658,210 L673,210" stroke="#6366f1" stroke-width="1.5"/>
  <rect x="676" y="195" width="60" height="30" rx="6" fill="url(#s2)"/><text x="706" y="214" text-anchor="middle" font-size="9" fill="#fff" font-weight="700">Story</text>
  <path d="M736,210 L751,210" stroke="#3b82f6" stroke-width="1.5"/>
  <rect x="754" y="195" width="60" height="30" rx="6" fill="url(#topo)"/><text x="784" y="214" text-anchor="middle" font-size="9" fill="#fff" font-weight="700">TopoΔ</text>
  <path d="M814,210 L826,210" stroke="#10b981" stroke-width="1.5"/>
  <rect x="829" y="195" width="55" height="30" rx="6" fill="url(#val)"/><text x="856" y="214" text-anchor="middle" font-size="9" fill="#fff" font-weight="700">Check</text>
  <path d="M884,210 L899,210" stroke="#f59e0b" stroke-width="1.5"/>
  <rect x="902" y="195" width="60" height="30" rx="6" fill="url(#attr)"/><text x="932" y="214" text-anchor="middle" font-size="9" fill="#fff" font-weight="700">Proj</text>

  <!-- Component 2 -->
  <rect x="415" y="255" width="80" height="30" rx="6" fill="#eef2ff" stroke="#a5b4fc" stroke-width="1"/>
  <text x="455" y="274" text-anchor="middle" font-size="11" font-weight="600" fill="#4338ca">Comp 2</text>
  <path d="M495,270 L515,270" stroke="#a5b4fc" stroke-width="1.5"/>
  <rect x="520" y="255" width="60" height="30" rx="6" fill="url(#s2)"/><text x="550" y="274" text-anchor="middle" font-size="9" fill="#fff" font-weight="700">Plan</text>
  <path d="M580,270 L595,270" stroke="#3b82f6" stroke-width="1.5"/>
  <rect x="598" y="255" width="60" height="30" rx="6" fill="url(#s1)"/><text x="628" y="274" text-anchor="middle" font-size="9" fill="#fff" font-weight="700">Exec</text>
  <path d="M658,270 L673,270" stroke="#6366f1" stroke-width="1.5"/>
  <rect x="676" y="255" width="60" height="30" rx="6" fill="url(#s2)"/><text x="706" y="274" text-anchor="middle" font-size="9" fill="#fff" font-weight="700">Story</text>
  <path d="M736,270 L751,270" stroke="#3b82f6" stroke-width="1.5"/>
  <rect x="754" y="255" width="60" height="30" rx="6" fill="url(#topo)"/><text x="784" y="274" text-anchor="middle" font-size="9" fill="#fff" font-weight="700">TopoΔ</text>
  <path d="M814,270 L826,270" stroke="#10b981" stroke-width="1.5"/>
  <rect x="829" y="255" width="55" height="30" rx="6" fill="url(#val)"/><text x="856" y="274" text-anchor="middle" font-size="9" fill="#fff" font-weight="700">Check</text>
  <path d="M884,270 L899,270" stroke="#f59e0b" stroke-width="1.5"/>
  <rect x="902" y="255" width="60" height="30" rx="6" fill="url(#attr)"/><text x="932" y="274" text-anchor="middle" font-size="9" fill="#fff" font-weight="700">Proj</text>

  <!-- Component 3 (has retry) -->
  <rect x="415" y="315" width="80" height="30" rx="6" fill="#eef2ff" stroke="#a5b4fc" stroke-width="1"/>
  <text x="455" y="334" text-anchor="middle" font-size="11" font-weight="600" fill="#4338ca">Comp 3</text>
  <path d="M495,330 L515,330" stroke="#a5b4fc" stroke-width="1.5"/>
  <rect x="520" y="315" width="60" height="30" rx="6" fill="url(#s2)"/><text x="550" y="334" text-anchor="middle" font-size="9" fill="#fff" font-weight="700">Plan</text>
  <path d="M580,330 L595,330" stroke="#3b82f6" stroke-width="1.5"/>
  <rect x="598" y="315" width="60" height="30" rx="6" fill="url(#s1)"/><text x="628" y="334" text-anchor="middle" font-size="9" fill="#fff" font-weight="700">Exec</text>
  <path d="M658,330 L673,330" stroke="#6366f1" stroke-width="1.5"/>
  <rect x="676" y="315" width="60" height="30" rx="6" fill="url(#s2)"/><text x="706" y="334" text-anchor="middle" font-size="9" fill="#fff" font-weight="700">Story</text>
  <path d="M736,330 L751,330" stroke="#3b82f6" stroke-width="1.5"/>
  <rect x="754" y="310" width="60" height="40" rx="6" fill="url(#topo)" stroke="#ef4444" stroke-width="2"/>
  <text x="784" y="328" text-anchor="middle" font-size="9" fill="#fff" font-weight="700">TopoΔ</text>
  <text x="784" y="342" text-anchor="middle" font-size="7" fill="#fce7f3">retry×1</text>
  <path d="M814,330 L826,330" stroke="#10b981" stroke-width="1.5"/>
  <rect x="829" y="315" width="55" height="30" rx="6" fill="url(#val)"/><text x="856" y="334" text-anchor="middle" font-size="9" fill="#fff" font-weight="700">Check</text>
  <path d="M884,330 L899,330" stroke="#f59e0b" stroke-width="1.5"/>
  <rect x="902" y="315" width="60" height="30" rx="6" fill="url(#attr)"/><text x="932" y="334" text-anchor="middle" font-size="9" fill="#fff" font-weight="700">Proj</text>

  <!-- Component 4 -->
  <rect x="415" y="375" width="80" height="30" rx="6" fill="#eef2ff" stroke="#a5b4fc" stroke-width="1"/>
  <text x="455" y="394" text-anchor="middle" font-size="11" font-weight="600" fill="#4338ca">Comp 4</text>
  <path d="M495,390 L515,390" stroke="#a5b4fc" stroke-width="1.5"/>
  <rect x="520" y="375" width="60" height="30" rx="6" fill="url(#s2)"/><text x="550" y="394" text-anchor="middle" font-size="9" fill="#fff" font-weight="700">Plan</text>
  <path d="M580,390 L595,390" stroke="#3b82f6" stroke-width="1.5"/>
  <rect x="598" y="375" width="60" height="30" rx="6" fill="url(#s1)"/><text x="628" y="394" text-anchor="middle" font-size="9" fill="#fff" font-weight="700">Exec</text>
  <path d="M658,390 L673,390" stroke="#6366f1" stroke-width="1.5"/>
  <rect x="676" y="375" width="60" height="30" rx="6" fill="url(#s2)"/><text x="706" y="394" text-anchor="middle" font-size="9" fill="#fff" font-weight="700">Story</text>
  <path d="M736,390 L751,390" stroke="#3b82f6" stroke-width="1.5"/>
  <rect x="754" y="375" width="60" height="30" rx="6" fill="url(#topo)"/><text x="784" y="394" text-anchor="middle" font-size="9" fill="#fff" font-weight="700">TopoΔ</text>
  <path d="M814,390 L826,390" stroke="#10b981" stroke-width="1.5"/>
  <rect x="829" y="375" width="55" height="30" rx="6" fill="url(#val)"/><text x="856" y="394" text-anchor="middle" font-size="9" fill="#fff" font-weight="700">Check</text>
  <path d="M884,390 L899,390" stroke="#f59e0b" stroke-width="1.5"/>
  <rect x="902" y="375" width="60" height="30" rx="6" fill="url(#attr)"/><text x="932" y="394" text-anchor="middle" font-size="9" fill="#fff" font-weight="700">Proj</text>

  <!-- Component 5 -->
  <rect x="415" y="435" width="80" height="30" rx="6" fill="#eef2ff" stroke="#a5b4fc" stroke-width="1"/>
  <text x="455" y="454" text-anchor="middle" font-size="11" font-weight="600" fill="#4338ca">Comp 5</text>
  <path d="M495,450 L515,450" stroke="#a5b4fc" stroke-width="1.5"/>
  <rect x="520" y="435" width="60" height="30" rx="6" fill="url(#s2)"/><text x="550" y="454" text-anchor="middle" font-size="9" fill="#fff" font-weight="700">Plan</text>
  <path d="M580,450 L595,450" stroke="#3b82f6" stroke-width="1.5"/>
  <rect x="598" y="435" width="60" height="30" rx="6" fill="url(#s1)"/><text x="628" y="454" text-anchor="middle" font-size="9" fill="#fff" font-weight="700">Exec</text>
  <path d="M658,450 L673,450" stroke="#6366f1" stroke-width="1.5"/>
  <rect x="676" y="435" width="60" height="30" rx="6" fill="url(#s2)"/><text x="706" y="454" text-anchor="middle" font-size="9" fill="#fff" font-weight="700">Story</text>
  <path d="M736,450 L751,450" stroke="#3b82f6" stroke-width="1.5"/>
  <rect x="754" y="435" width="60" height="30" rx="6" fill="url(#topo)"/><text x="784" y="454" text-anchor="middle" font-size="9" fill="#fff" font-weight="700">TopoΔ</text>
  <path d="M814,450 L826,450" stroke="#10b981" stroke-width="1.5"/>
  <rect x="829" y="435" width="55" height="30" rx="6" fill="url(#val)"/><text x="856" y="454" text-anchor="middle" font-size="9" fill="#fff" font-weight="700">Check</text>
  <path d="M884,450 L899,450" stroke="#f59e0b" stroke-width="1.5"/>
  <rect x="902" y="435" width="60" height="30" rx="6" fill="url(#attr)"/><text x="932" y="454" text-anchor="middle" font-size="9" fill="#fff" font-weight="700">Proj</text>

  <!-- Gather arrows (merge to single result flow) -->
  <path d="M962,150 L985,150 L985,560 L520,560" stroke="#94a3b8" stroke-width="1.5" fill="none"/>
  <path d="M962,210 L985,210" stroke="#94a3b8" stroke-width="1.5" fill="none"/>
  <path d="M962,270 L985,270" stroke="#94a3b8" stroke-width="1.5" fill="none"/>
  <path d="M962,330 L985,330" stroke="#94a3b8" stroke-width="1.5" fill="none"/>
  <path d="M962,390 L985,390" stroke="#94a3b8" stroke-width="1.5" fill="none"/>
  <path d="M962,450 L985,450" stroke="#94a3b8" stroke-width="1.5" fill="none"/>

  <!-- ====== MERGE ====== -->
  <rect x="420" y="565" width="220" height="44" rx="10" fill="#475569" filter="url(#shadow)"/>
  <text x="530" y="586" text-anchor="middle" font-size="13" fill="#fff" font-weight="700">Merge Results</text>
  <text x="530" y="600" text-anchor="middle" font-size="9" fill="#cbd5e1">exec_results + stories + attr_ops</text>
  <path d="M640,587 L680,587" stroke="#475569" stroke-width="1.5"/>

  <!-- ====== APPLY ====== -->
  <rect x="685" y="560" width="180" height="54" rx="10" fill="#1e293b" filter="url(#shadow)"/>
  <text x="775" y="582" text-anchor="middle" font-size="13" fill="#fff" font-weight="700">Apply to Graph</text>
  <text x="775" y="598" text-anchor="middle" font-size="10" fill="#94a3b8">delta · attr · ri</text>
  <text x="775" y="610" text-anchor="middle" font-size="9" fill="#64748b">State updated ↗</text>

  <!-- ====== TIMING INFO ====== -->
  <rect x="40" y="520" width="340" height="140" rx="8" fill="#fff" stroke="#e2e8f0" stroke-width="1"/>
  <text x="50" y="542" font-size="12" font-weight="700" fill="#1e293b">⏱ Timing Profile (tick_001)</text>

  <rect x="55" y="555" width="100" height="16" rx="4" fill="url(#s2)"/>
  <text x="75" y="567" text-anchor="middle" font-size="8" fill="#fff" font-weight="600">Plan #1: 27s</text>
  <rect x="55" y="575" width="100" height="16" rx="4" fill="url(#s1)"/>
  <text x="75" y="587" text-anchor="middle" font-size="8" fill="#fff" font-weight="600">Exec #2: 0s</text>
  <rect x="55" y="595" width="150" height="16" rx="4" fill="#bfdbfe"/>
  <text x="80" y="607" text-anchor="middle" font-size="8" fill="#1e40af" font-weight="600">Story #3: 240s (36%)</text>
  <rect x="55" y="615" width="200" height="16" rx="4" fill="#a7f3d0"/>
  <text x="105" y="627" text-anchor="middle" font-size="8" fill="#065f46" font-weight="600">TopoΔ #4a: 396s (60%) ⚡</text>
  <rect x="55" y="635" width="150" height="16" rx="4" fill="#fecaca"/>
  <text x="80" y="647" text-anchor="middle" font-size="8" fill="#991b1b" font-weight="600">Proj #5: 310s (47%)</text>

  <!-- ====== LEGEND ====== -->
  <rect x="40" y="670" width="300" height="36" rx="6" fill="#f8fafc" stroke="#e2e8f0" stroke-width="1"/>
  <text x="50" y="693" font-size="10" fill="#64748b">◆ Box = LLM call  ◆ Arrow = data dependency  ◆ Red border = retry</text>
</svg>